# xmcd
#
# Track frame offsets:
#	150
#	17168
#	35745
#	60559
#	78885
#	97880
#	114539
#	134181
#
# Disc length: 2071 seconds
#
# Revision: 1
# Processed by: cddbd v1.5.2PL0 Copyright (c) Steve Scherf et al.
# Submitted via: audiograbber 1.83.01
#
DISCID=66081508
DTITLE=The Jay Kay Band - Multicored Blues
DYEAR=2000
DGENRE=Blues
TTITLE0=On my way
TTITLE1=In the hole
TTITLE2=Superstition
TTITLE3=Bumpin the bed
TTITLE4=Crosseut saw
TTITLE5=Turn it over
TTITLE6=Got the blues
TTITLE7=H. D. and me
EXTD=
EXTT0=
EXTT1=
EXTT2=
EXTT3=
EXTT4=
EXTT5=
EXTT6=
EXTT7=
PLAYORDER=
